<?xml version="1.0" encoding="UTF-8"?>
<svg id="Camada_2" data-name="Camada 2" xmlns="http://www.w3.org/2000/svg" viewBox="0 0 280.07 284.46">
  <defs>
    <style>
      .cls-1 {
        stroke: #493200;
        stroke-linecap: round;
        stroke-miterlimit: 10;
        stroke-width: 4px;
      }

      .cls-1, .cls-2 {
        fill: #ffc100;
      }

      .cls-3 {
        fill: #493200;
      }

      .cls-4 {
        fill: #b17e00;
      }

      .cls-5 {
        fill: #ffc000;
      }
    </style>
  </defs>
  <g id="Camada_10" data-name="Camada 10">
    <g id="Camada_3" data-name="Camada 3">
      <g>
        <path class="cls-2" d="M112.53,165.57l.16-1.94c.81-9.61,1.76-19.33,2.81-28.9,1.63-14.81,3.58-29.79,5.8-44.55l-34.87-.71,2.93-31.09,108.53.02-.29,31.57h-37.23l-9.73,79.87-38.11-4.27h0Z"/>
        <path class="cls-3" d="M91.18,60.37c34.9,0,69.8.01,104.7.02-.09,9.19-.17,18.38-.26,27.57h-37.02c-3.23,26.55-6.47,53.11-9.7,79.66-11.4-1.28-22.81-2.55-34.21-3.83.8-9.44,1.73-19.06,2.81-28.85,1.77-16.1,3.84-31.68,6.13-46.72-11.67-.24-23.33-.48-35-.71.85-9.04,1.7-18.09,2.56-27.13M87.54,56.37l-.34,3.63-1.28,13.57-1.28,13.57-.4,4.29,4.3.09,17.5.36,12.95.26c-2.08,14.06-3.92,28.29-5.47,42.38-1.06,9.6-2.01,19.34-2.82,28.95l-.33,3.88,3.87.43,22.45,2.51,11.76,1.32,3.94.44.48-3.93,4.96-40.73,4.31-35.41h37.44l.04-3.96.13-13.79.13-13.79.04-4.04h-56.39s-52.35-.01-52.35-.01h-3.64s0-.02,0-.02Z"/>
      </g>
    </g>
    <g id="amarelos">
      <g id="Camada_2-2" data-name="Camada 2">
        <g>
          <path class="cls-4" d="M146.08,237.52c-12-1.06-23.83-3.5-35.17-7.24-8.77-2.9-27.02-8.92-45.92-24.53-9.05-7.47-17.08-16.2-23.86-25.93l-1.18-1.69,88.72-58.18-6.36,33.69c.58.23,1.17.43,1.76.6,1.58.46,3.46.69,5.58.69,2.63,0,5.54-.36,8.63-1.08,3.77-.87,6.34-1.92,9.6-3.25,5.44-2.22,11.39-4.97,18.11-10,2-1.49,3.88-3.1,5.77-4.91,8.29-7.98,12.67-16.25,14.54-20.47,1.65-3.73,4.53-11.52,5.28-21.8.5-6.8,1.17-16.1-3.23-25.93-4.18-9.31-10.75-14.4-17.1-19.32-4.04-3.13-15.19-10.84-31.6-14.96-7.02-1.76-14.81-2.7-22.52-2.7-6.66,0-13.33.68-19.82,2.03-21.41,4.45-36.14,15.07-43.02,21-12.11,10.45-18.26,21.32-24.76,32.83-9.47,16.76-16.38,35.12-20.55,54.58l-1.84,8.57-2.06-8.51c-3.4-14.02-3.98-28.25-1.73-42.32,2.09-13.07,6.12-22.8,8.34-27.44,7.17-14.99,16.29-23.94,22.33-29.86,9.12-8.94,24.64-21.4,46.8-29.97,20.14-7.79,38.35-9.42,50.09-9.42,1.16,0,2.2.02,3.14.04,11.43.27,30.56.73,52.27,11.79,22.25,11.35,35.67,27.95,43.01,39.88,4.33,7.05,14.48,23.54,15.61,47.25.5,10.42-.47,30.93-12.53,51.16-15.17,25.43-38.42,35.38-57.1,43.37-12.78,5.46-26.24,9.28-40.06,11.34l14.28,30.99-3.44-.3h0Z"/>
          <path class="cls-3" d="M130.91,4c1.14,0,2.17.02,3.09.04,11.89.28,30.54.93,51.4,11.57,23.82,12.14,36.77,30.3,42.21,39.15,4.81,7.82,14.23,23.57,15.32,46.3.4,8.27.24,29.09-12.26,50.04-14.84,24.88-38.05,34.8-56.17,42.55-17.13,7.33-32.28,10.26-42.21,11.57,4.65,10.1,9.3,20.2,13.96,30.3-10.35-.92-22.15-3-34.72-7.15-9.25-3.06-27.03-9.11-45.28-24.17-10.78-8.9-18.36-18.16-23.49-25.53,27.69-18.16,55.38-36.31,83.06-54.47l-2.81,14.9c-.99,5.25-1.98,10.49-2.97,15.74.77.37,1.96.88,3.46,1.32.79.23,2.82.77,6.14.77,2.36,0,5.38-.27,9.08-1.13,3.85-.89,6.52-1.97,9.91-3.35,4.39-1.79,11.09-4.66,18.56-10.25,1.97-1.47,3.94-3.14,5.95-5.07,9.44-9.08,13.79-18.42,14.98-21.11,1.04-2.35,4.59-10.75,5.45-22.47.52-7.07,1.21-16.61-3.4-26.89-4.38-9.77-11.25-15.09-17.7-20.09-2.78-2.16-14.3-10.79-32.34-15.32-3.54-.89-11.86-2.76-23.01-2.76-6.02,0-12.86.54-20.23,2.08-23.86,4.96-39.2,17.38-43.91,21.45-12.05,10.4-18.13,20.86-25.19,33.36-6.74,11.93-15.46,30.42-20.77,55.15-2.16-8.92-4.55-23.71-1.7-41.53,2.28-14.26,6.93-24.31,8.17-26.89,6.88-14.37,15.68-23.17,21.93-29.3,6.32-6.2,21.82-20.14,46.12-29.54,20.96-8.11,39.29-9.29,49.37-9.29M130.91,0c-11.91,0-30.39,1.66-50.81,9.56-22.48,8.69-38.23,21.34-47.48,30.41-5.77,5.66-15.41,15.12-22.74,30.42-2.27,4.73-6.38,14.67-8.51,27.99-2.29,14.33-1.7,28.83,1.76,43.11l4.13,17.03,3.67-17.13c4.13-19.27,10.97-37.44,20.34-54.02,6.41-11.35,12.47-22.08,24.32-32.3,6.73-5.81,21.15-16.2,42.12-20.56,6.35-1.32,12.89-1.99,19.41-1.99,7.55,0,15.17.91,22.03,2.64,16.05,4.03,26.93,11.55,30.87,14.6,6.16,4.77,12.53,9.71,16.5,18.56,4.2,9.37,3.57,18.02,3.06,24.97-.73,9.98-3.52,17.53-5.11,21.14-1.81,4.09-6.05,12.1-14.09,19.84-1.83,1.76-3.65,3.31-5.58,4.75-7.45,5.57-14.1,8.29-17.67,9.75-3.17,1.3-5.68,2.32-9.3,3.16-2.95.68-5.7,1.03-8.18,1.03-1.93,0-3.62-.21-5.02-.61-.01,0-.02,0-.04,0l2.36-12.47,2.81-14.9,1.75-9.25-7.87,5.16-41.53,27.23-41.53,27.23-3.44,2.26,2.35,3.38c6.88,9.88,15.03,18.74,24.23,26.33,19.2,15.85,37.68,21.95,46.57,24.88,11.49,3.79,23.47,6.26,35.63,7.34l6.87.61-2.89-6.27-6.98-15.15-4.75-10.31c13.06-2.17,25.8-5.88,37.92-11.07,17.95-7.68,42.53-18.19,58.03-44.18,12.34-20.68,13.32-41.63,12.82-52.28-1.16-24.22-11.49-41.03-15.91-48.2-7.47-12.15-21.14-29.06-43.8-40.62C165.12.79,144.94.31,134.1.05c-1.08-.03-2.12-.04-3.19-.04h0Z"/>
        </g>
      </g>
      <g id="Camada_4" data-name="Camada 4">
        <path class="cls-1" d="M92.22,58.57c35.55.01,71.09.03,106.64.04-.45,4.97-.96,10.02-1.53,15.15-.61,5.44-1.26,10.77-1.96,16h-34.85"/>
      </g>
      <g id="Camada_6" data-name="Camada 6">
        <g>
          <path class="cls-5" d="M185.02,202.39l11.89-96.93,62.75-.18.36.14c4.45,1.77,8.38,4.56,11.34,8.05,1.96,2.31,8.21,10.62,6.4,20.38l-.1.48c-2.43,11.68-9.42,19.53-11.51,21.66-3.52,3.6-7.67,6.54-12.31,8.75l-.4.19-26.47.18-2.79-15.56-7.07,52.82h-32.1v.02ZM225.74,143.1c1.52.26,2.88.31,3.76.31,3.11,0,7.52-.65,10.9-3.73,1.34-1.22,3.83-3.49,3.61-6.55-.23-3.07-3.1-5.03-4.15-5.64l-12.71-.14-2.09,15.64.68.11h0Z"/>
          <path class="cls-3" d="M259.28,107.29c2.8,1.11,6.99,3.28,10.55,7.49,1.35,1.6,7.68,9.47,5.96,18.72-.03.15-.05.26-.09.46-2.44,11.75-9.75,19.4-10.97,20.64-2.25,2.29-6.07,5.64-11.74,8.34-8.11.06-16.23.11-24.34.17-1.08-6.01-2.16-12.03-3.23-18.04.63.11,2.14.34,4.09.34,3.49,0,8.4-.74,12.25-4.25,1.53-1.39,4.55-4.17,4.26-8.17-.35-4.76-5.24-7.3-5.62-7.49-4.99-.06-9.99-.11-14.98-.17-3.35,25.02-6.7,50.04-10.04,75.06h-28.09c3.8-30.98,7.6-61.96,11.4-92.94,20.2-.06,40.4-.11,60.6-.17M260.04,103.28h-.77l-30.3.09-30.3.09h-3.53l-.43,3.51-5.45,44.4-5.96,48.54-.55,4.49h36.11l.46-3.47,4.86-36.32.28-2.1.24,1.31.59,3.32,3.37-.02,12.18-.09,12.16-.09h.89l.8-.39c4.86-2.31,9.2-5.39,12.88-9.15,2.18-2.23,9.5-10.44,12.03-22.63.05-.24.08-.36.11-.54,1.98-10.63-4.73-19.56-6.84-22.04-3.18-3.75-7.37-6.73-12.13-8.62l-.72-.28h.02ZM227.31,141.3l1.6-11.93,2.48.03,7.89.09c.96.65,2.62,2.02,2.75,3.8.14,1.92-1.45,3.55-2.96,4.92-2.91,2.65-6.8,3.21-9.55,3.21-.55,0-1.32-.02-2.19-.11h-.02Z"/>
        </g>
      </g>
    </g>
    <g>
      <path class="cls-5" d="M181.36,281.49c-1.16,0-2.28-.17-3.34-.52-3.81-1.24-6.39-4.52-9.53-12.12-2.38-5.76-4.2-11.88-5.42-18.24-8.2,3.33-16.82,5.29-25.67,5.81-1.6.1-3.23.15-4.84.15-8.21,0-16.34-1.24-24.17-3.68-20.99-4.7-40.24-13.52-57.2-26.22-11.6-8.68-21.87-19.04-30.54-30.8l-1.26-1.71,7.67-4.97,1.12,1.46c3.47,4.51,7.24,8.88,11.21,12.98,12.95,13.36,25.67,21.52,32.11,25.19,11.38,6.5,23.87,11.46,36.11,14.34,6.63,1.57,15.72,3.71,26.82,3.71,2.9,0,5.85-.15,8.77-.43,10.49-1.04,20.71-3.85,30.37-8.38l2.86-1.34v3.16c-.03,4.91.55,9.82,1.72,14.58.66,2.7,1.51,5.36,2.54,7.94,2.51-7.09,5.27-14.14,8.23-21.02,3.12-7.27,6.53-14.53,10.14-21.57l.36-.7.74-.27c2.57-.93,5.12-1.4,7.58-1.4,1.58,0,3.12.2,4.59.58,1.96.52,4.57,2.43,11.84,7.9,4.19,3.15,6.27,4.8,7.82,7.96.78,1.58,2.81,5.7.5,8.43-1.17,1.39-2.92,2.19-4.79,2.19-1.36,0-2.67-.42-3.77-1.22-2.5-1.89-4.95-3.79-7.34-5.67-2.63-2.07-5.28-4.18-7.9-6.31-2.7,4.81-5.29,9.74-7.71,14.68-5.3,10.81-9.99,22.07-13.95,33.48l-.32.92-.92.32c-1.52.52-3.01.78-4.44.78h0Z"/>
      <path class="cls-3" d="M26.6,191.88c2.65,3.44,6.43,8.06,11.36,13.15,14.44,14.9,28.31,23.11,32.55,25.53,16.39,9.35,30.75,13.16,36.64,14.55,7.32,1.73,16.23,3.76,27.28,3.76,2.84,0,5.83-.13,8.97-.44,13.64-1.35,24.32-5.42,31.02-8.55-.02,3.98.34,9.18,1.79,15.06,1.29,5.25,3.07,9.58,4.72,12.89,2.74-8.1,5.98-16.69,9.83-25.66,3.29-7.67,6.69-14.82,10.09-21.45,2.7-.98,5.02-1.28,6.9-1.28,1.78,0,3.16.27,4.08.52,1.64.43,4.84,2.82,11.15,7.57,4.07,3.06,5.88,4.5,7.23,7.24.55,1.12,2.24,4.51.77,6.26-.81.96-2.02,1.48-3.27,1.48-.9,0-1.82-.27-2.61-.84-2.41-1.83-4.84-3.7-7.28-5.62-3.32-2.6-6.55-5.2-9.7-7.79-3.01,5.27-6.01,10.89-8.94,16.85-5.81,11.85-10.4,23.2-14.04,33.7-.98.33-2.31.67-3.79.67-.87,0-1.79-.12-2.72-.42-2.99-.97-5.24-3.57-8.3-10.98-1.91-4.62-4.27-11.46-5.74-20.3-5.81,2.57-15.25,5.92-27.32,6.64-1.62.1-3.19.14-4.72.14-10.14,0-18.34-1.95-23.66-3.62-13.26-2.96-34.81-9.63-56.52-25.89-13.88-10.39-23.61-21.55-30.13-30.38,1.45-.94,2.89-1.87,4.34-2.81M27.52,186.52l-3.1,2-2.17,1.4-2.17,1.4-3.57,2.31,2.52,3.42c8.78,11.91,19.2,22.41,30.95,31.21,17.17,12.86,36.64,21.79,57.88,26.55,8,2.49,16.31,3.75,24.69,3.75,1.65,0,3.31-.05,4.96-.15,8.27-.49,16.35-2.2,24.07-5.09,1.23,5.65,2.92,11.11,5.06,16.28,2.87,6.96,5.68,11.61,10.76,13.26,1.26.41,2.59.61,3.96.61,1.65,0,3.36-.3,5.08-.89l1.85-.63.64-1.84c3.93-11.33,8.59-22.51,13.86-33.25,2.06-4.2,4.24-8.39,6.51-12.51,2.02,1.63,4.05,3.24,6.07,4.83,2.41,1.89,4.88,3.8,7.33,5.66l.04.03.04.03c1.45,1.04,3.16,1.59,4.94,1.59,2.46,0,4.77-1.06,6.32-2.9,3.15-3.73.62-8.88-.22-10.57-1.85-3.75-4.47-5.72-8.43-8.7-7.67-5.77-10.21-7.62-12.54-8.24-1.63-.43-3.35-.65-5.1-.65-2.69,0-5.47.51-8.26,1.52l-1.48.54-.72,1.4c-3.63,7.08-7.06,14.38-10.2,21.69-2.23,5.2-4.35,10.49-6.34,15.82-.24-.81-.45-1.62-.65-2.43-1.13-4.6-1.69-9.35-1.67-14.1l.03-6.32-5.72,2.68c-9.46,4.43-19.46,7.18-29.72,8.2-2.86.28-5.75.43-8.58.43-10.87,0-19.83-2.11-26.36-3.66-12.05-2.85-24.36-7.73-35.57-14.13-6.34-3.62-18.89-11.66-31.66-24.84-3.92-4.04-7.64-8.35-11.06-12.8l-2.25-2.92h-.02Z"/>
    </g>
    <g>
      <path class="cls-5" d="M195.07,282.45c-1.47,0-2.79-.49-3.72-1.37-.53-.5-1.42-1.63-1.55-3.59-.3-1.61-.35-3.23-.17-4.82.22-1.86.8-4.17,3.54-8.42.18-.27,4.29-6.51,11.8-12.17.75-.57,2.51-1.89,5.02-2.02.13,0,.26-.01.39-.01.89,0,1.79.15,2.66.46l.39.14,1.96,1.81.09.73c.04.33.07.66.11,1,.39-.2.83-.36,1.34-.44.23-.04.45-.05.68-.05,1.79,0,3.47,1.08,4.36,2.74l1.21-1.56.04-.05c.53-.61,2.01-2.02,4.29-2.04h0c2.51,0,4.75,1.66,5.65,4.13.95,2.55,1.59,5.23,1.89,7.95.23,2.06.26,4.15.1,6.22h1.29l.3.09c1.3.41,2.27,1.27,2.64,2.35.74,2.12-.76,4.6-3.34,5.52l-.11.04c-.73.21-1.48.32-2.24.32-.88,0-1.75-.15-2.57-.44-.98-.35-1.87-.89-2.65-1.61l-.24-.22-1.47-2.74-.06-.26c-.37-1.58-.63-3.2-.78-4.82-.16-1.77-.15-3.27-.11-4.5-.41.53-.88,1.16-1.39,1.9-2.38,3.49-4.18,7.49-5.33,11.89l-.3,1.14-1.15.29c-.75.19-1.5.28-2.24.28s-1.49-.1-2.2-.3c-2.51-.71-4.59-2.64-5.87-5.28-.42.52-.87,1.03-1.34,1.51-1.64,1.69-3.53,3.1-5.61,4.2-1.63,1.28-3.51,1.99-5.31,1.99h0Z"/>
      <path class="cls-3" d="M210.38,252.05c.85,0,1.55.19,2.01.35.37.34.74.68,1.11,1.02.26,2.23.42,4.8.34,7.66-.1,3.41-.51,6.42-1.02,8.94.34.06.68.11,1.02.17.35-2.28.67-4.67.94-7.15.22-2.02.38-3.98.51-5.87.09-.16.73-1.25,1.96-1.45.12-.02.25-.03.37-.03,1.14,0,2.28.79,2.78,2.07.17,1.11.34,2.21.51,3.32,1.28-1.65,2.55-3.29,3.83-4.94.19-.21,1.22-1.34,2.81-1.36h.04c1.59,0,3.09,1.12,3.71,2.81.71,1.89,1.45,4.43,1.79,7.49.29,2.66.2,4.98,0,6.81.06.4.11.79.17,1.19h2.89c.22.07,1.11.37,1.36,1.11.33.94-.44,2.38-2.13,2.98-.31.09-.92.24-1.68.24-.56,0-1.21-.08-1.9-.32-.92-.33-1.57-.83-1.96-1.19-.4-.74-.79-1.48-1.19-2.21-.23-1-.56-2.58-.73-4.54-.45-5.04.5-7.84-.38-8.23-.07-.03-.14-.04-.22-.04-1.24,0-3.81,3.64-4.55,4.72-1.81,2.65-4.1,6.74-5.62,12.51-.65.16-1.24.22-1.75.22-.7,0-1.26-.11-1.65-.22-3.01-.85-5.24-4.05-5.7-8.09-.68,1.32-1.77,3.08-3.49,4.85-1.92,1.98-3.88,3.19-5.28,3.91-1.39,1.14-2.91,1.67-4.21,1.67-.95,0-1.78-.28-2.34-.82-.22-.21-.87-.9-.94-2.38-.2-1.03-.38-2.55-.17-4.34.19-1.65.74-3.7,3.23-7.57,0,0,3.92-6.08,11.32-11.66.79-.6,2.1-1.53,3.91-1.62h.29M210.38,248.05c-.16,0-.32,0-.49.01-3.12.16-5.3,1.8-6.12,2.42-7.87,5.93-12.1,12.41-12.27,12.69-2.96,4.6-3.6,7.17-3.85,9.28-.21,1.75-.15,3.53.17,5.3.15,1.92.91,3.61,2.16,4.79,1.3,1.24,3.11,1.92,5.09,1.92,2.2,0,4.45-.81,6.4-2.3,2.05-1.1,3.92-2.48,5.57-4.1,1.48,1.9,3.41,3.28,5.63,3.91.88.25,1.8.37,2.74.37s1.81-.12,2.72-.34l2.29-.58.6-2.29c.75-2.86,1.78-5.54,3.09-8.01.16,1.17.37,2.34.64,3.48l.12.51.25.47.66,1.23.53.99.32.59.49.45c.97.9,2.1,1.59,3.33,2.03,1.04.37,2.13.56,3.24.56.94,0,1.88-.13,2.79-.4l.12-.03.11-.04c3.62-1.29,5.66-4.91,4.56-8.07-.59-1.69-2.03-3-3.94-3.6l-.08-.03c.03-1.54-.03-3.07-.2-4.6-.32-2.89-1-5.73-2.02-8.45-1.16-3.22-4.16-5.41-7.45-5.41h-.09c-2.82.03-4.72,1.61-5.56,2.5-1.22-1-2.74-1.59-4.32-1.59h-.29l-.02-.21-1.09-1-.62-.57-.49-.45-.61-.57-.79-.27c-1.09-.38-2.2-.57-3.32-.57h0v-.02Z"/>
    </g>
    <g>
      <path class="cls-5" d="M196.05,273.58c1.4-2.6,3.37-5.72,6.13-8.94,2.24-2.61,4.48-4.69,6.47-6.3-.44,1.91-1.44,5.06-3.83,8.26-3.1,4.14-6.87,6.13-8.77,6.98h0Z"/>
      <path class="cls-3" d="M208.64,258.35c-1.98,1.61-4.23,3.69-6.47,6.3-2.75,3.21-4.73,6.33-6.13,8.94,1.9-.85,5.67-2.84,8.77-6.98,2.39-3.2,3.39-6.34,3.83-8.26h0Z"/>
    </g>
  </g>
</svg>